<svg xmlns="http://www.w3.org/2000/svg" viewBox="0 0 226.39 120.2"><title>Recurso 1</title><g id="Capa_2" data-name="Capa 2"><g id="Capa_1-2" data-name="Capa 1"><g id="Grupo_1" data-name="Grupo 1"><path id="Trazado_1" data-name="Trazado 1" d="M38.75,55.76c2.36,1.84,4.84,3.52,7.09,5.48A27,27,0,0,1,54.43,79a38.21,38.21,0,0,1-7.61,29.52,29.39,29.39,0,0,1-20.36,10.85,166.55,166.55,0,0,1-17,.81,2.49,2.49,0,0,1-1.15-.12c-1.57-.75-4.1-1.38-4.33-2.48a5.74,5.74,0,0,1,2-4.9c3.35-2,3.06-4.33,2.65-7.56a519.3,519.3,0,0,1-3.23-93.2c.06-.92,0-1.9,0-2.82A6.09,6.09,0,0,1,4,8.7C2.7,8,.68,7.6.22,6.56A4.42,4.42,0,0,1,2.53,1.2a7.12,7.12,0,0,1,3.23-1c11.71-.75,22.89,1,32.12,8.94a39,39,0,0,1,5.25,5.42,23.22,23.22,0,0,1,3.06,4.61,34.17,34.17,0,0,1,.75,23.52A80.81,80.81,0,0,1,38.75,55.76Zm-21.34,20h-.17c.86,6.63,1.61,13.32,2.53,20,.53,3.77,1.33,7.44,2,11.19a2.79,2.79,0,0,0,4.44,2.19,39.55,39.55,0,0,0,10.1-6c7.38-7.27,9.17-23,4.15-32.07a15.85,15.85,0,0,0-9.35-8,4.85,4.85,0,0,0-3,.05c-3.18,1.1-6.27,2.25-9.35,3.58A3.34,3.34,0,0,0,17,68.9c-.05,2.32.29,4.62.41,6.87Zm-.92-22.15a23.79,23.79,0,0,1,4.21-.46c5.94.58,9.11-3.76,11.6-7.56a29.1,29.1,0,0,0,3.86-15.39A20.77,20.77,0,0,0,16.5,9.79Z"/><path id="Trazado_2" data-name="Trazado 2" d="M111,62.74a96.87,96.87,0,0,1,6.87-8.25,11.53,11.53,0,0,1,5.71-2.94c5.76-1,9.17,1.73,9.28,7.61a133.09,133.09,0,0,1-.52,13.55,116.93,116.93,0,0,0,3.06,38c.05.29.11.58.17.86,1.15,5.48.81,6.87-2,7.39-5.54,1-9.23-1-9.86-6-1.9-14.36-3.81-28.78-2-43.37a9,9,0,0,0-.35-4.21,19,19,0,0,0-1.61,2.77c-2.94,8-6.11,16-8.47,24.16a30.89,30.89,0,0,0-.11,10.55c.23,3.52.92,7,1.32,10.56.29,2.59-1,3.76-3.51,3.76-4.79,0-8.47-1.33-8.78-6.92-.41-8.42-1-16.84-.81-25.26.17-9.57,1.1-19.15,1.84-28.72.35-4.09,1.45-5.36,3.93-5.3A6,6,0,0,1,111,57C111.13,58.75,111,60.6,111,62.74Z"/><path id="Trazado_3" data-name="Trazado 3" d="M214.25,103.8a79.6,79.6,0,0,1-7.1,9.17c-6.17,6-14.3,3.35-16.14-5.08a47.34,47.34,0,0,1,1.48-23.06,237.86,237.86,0,0,1,8.71-24A33.33,33.33,0,0,1,206.5,53c1.67-2.14,3.69-1.91,5.71-.06a18.63,18.63,0,0,0,4.5,3.23,5.23,5.23,0,0,1,3.12,4.73c.92,8.24,1.84,16.55,2.88,24.8,1,8.41,2.25,16.84,3.34,25.25.29,2.14,1.16,4.5-1.84,5.54a6.12,6.12,0,0,1-7.33-3.06,76,76,0,0,1-2.24-8A11.24,11.24,0,0,1,214.25,103.8Zm-12.81-1.44c3.87-5.77,7.73-27.28,6-32.36a84.9,84.9,0,0,0-6,32.36Z"/><path id="Trazado_4" data-name="Trazado 4" d="M67.24,115.68A23.14,23.14,0,0,1,63,109.74C57.32,96.19,57.78,82.4,61.18,68.5a24.2,24.2,0,0,1,8.36-14.07,24.94,24.94,0,0,1,7.22-3.28,2.93,2.93,0,0,1,3.86,1.53c0,.1.08.21.11.31a1.75,1.75,0,0,0,.93,1c7.49,2.71,9.74,9.17,11.13,15.92A60.33,60.33,0,0,1,90.54,105a23.44,23.44,0,0,1-8.71,11.19A10.44,10.44,0,0,1,75,118.33,10.17,10.17,0,0,1,67.24,115.68ZM69.14,86a53.09,53.09,0,0,0,3.45,20c.52,1.21,1.73,3.29,2.54,3.29s2.13-1.79,3.06-2.82a12.38,12.38,0,0,0,1.5-2.77C84.47,92.38,84,80.85,81.36,69.2A8.32,8.32,0,0,0,79.57,65a10.34,10.34,0,0,0-4.9-2c-.52-.12-1.62,1.38-2,2.36A49.67,49.67,0,0,0,69.14,86Z"/><path id="Trazado_5" data-name="Trazado 5" d="M176.88,52.3c3.28-.52,6.11-1,8.93-1.33,4-.4,5.37.29,5.65,2.71a5.59,5.59,0,0,1-4.2,6.71,3.89,3.89,0,0,1-.47.09c-2.77.46-5.54.52-8.31,1-.8.17-2,1.33-2,2-.06,15.23-.69,30.56,2.25,45.68.86,4.39.34,5.88-2.08,6.46a8.46,8.46,0,0,1-9.28-4.1,26,26,0,0,1-1.1-5.59,286.38,286.38,0,0,1-.4-38.53V63a25.12,25.12,0,0,1-4.67-.05c-1.39-.29-3.77-1.1-3.77-1.62a8.41,8.41,0,0,1,1.67-5,8.49,8.49,0,0,1,4.73-1.73c2-.28,2.72-1.15,2.82-3.17.29-6.23.7-12.46,1.16-18.68.17-2,.23-4.44,3.06-4.85A5.65,5.65,0,0,1,177,31.82a16.79,16.79,0,0,1,.63,5.08C177.45,41.8,177.16,46.76,176.88,52.3Z"/><path id="Trazado_6" data-name="Trazado 6" d="M154.67,109.68c.35,4.33-1.15,5.54-5.37,4.62-4.72-1-6.11-2.37-6.17-7.15-.28-14.65-.46-29.36-.52-44,0-1.25.87-3.52,1.5-3.57a7.59,7.59,0,0,1,5.54,1A11.24,11.24,0,0,1,152.3,67c.58,4.84.63,9.74.87,14.65C153.63,90.93,154.15,100.28,154.67,109.68Z"/><path id="Trazado_7" data-name="Trazado 7" d="M152.37,45.67c.23,5.64-.23,7-7.21,5.64-4.39-.81-5.14-1.9-4.33-6.23.12-.62.23-1.32.35-2,1.09-5.18,5.19-6.74,9.23-3C151.68,41.28,151.73,43.76,152.37,45.67Z"/></g></g></g></svg>